<?xml version="1.0" standalone="no"?>
<!DOCTYPE svg PUBLIC "-//W3C//DTD SVG 20010904//EN"
 "http://www.w3.org/TR/2001/REC-SVG-20010904/DTD/svg10.dtd">
<svg version="1.0" xmlns="http://www.w3.org/2000/svg"
 width="717.000000pt" height="717.000000pt" viewBox="0 0 717.000000 717.000000"
 preserveAspectRatio="xMidYMid meet">
<metadata>
Created by potrace 1.14, written by Peter Selinger 2001-2017
</metadata>
<g transform="translate(0.000000,717.000000) scale(0.100000,-0.100000)"
fill="#000000" stroke="none">
<path d="M3960 6584 c-274 -25 -544 -101 -783 -221 -300 -150 -567 -352 -882
-667 -395 -396 -702 -826 -1015 -1421 l-52 -100 83 90 c513 555 911 876 1354
1091 607 294 1187 280 1736 -42 75 -43 76 -45 83 -91 9 -68 7 -171 -5 -281
-55 -493 -284 -959 -725 -1472 -205 -238 -546 -571 -807 -789 -730 -607 -1670
-1078 -2691 -1347 l-109 -29 89 -6 c307 -23 810 3 1219 62 463 66 982 206
1415 379 213 85 582 268 778 387 688 416 1243 967 1607 1598 224 388 413 886
470 1240 72 451 -25 834 -284 1116 -71 78 -205 184 -221 174 -6 -3 -9 -1 -8 6
2 7 -26 29 -62 50 -61 37 -65 38 -85 21 -11 -9 -17 -13 -13 -8 4 5 2 16 -5 25
-11 14 -10 14 6 2 9 -7 17 -9 17 -4 0 15 -159 85 -177 79 -8 -3 -12 -2 -8 3 7
12 -91 45 -106 35 -7 -4 -9 -3 -6 3 10 17 -199 69 -394 98 -100 15 -341 26
-419 19z m211 -13 c-8 -6 13 -8 57 -6 55 3 74 0 84 -12 11 -14 10 -15 -11 -8
-16 5 -21 4 -17 -4 5 -8 -16 -11 -68 -11 -41 0 -78 -4 -81 -10 -3 -5 -36 -10
-72 -10 -42 0 -72 -5 -82 -14 -19 -16 -81 -10 -81 8 0 7 -19 21 -42 32 l-42
21 34 3 c19 2 61 4 93 4 31 1 57 4 57 9 0 4 42 7 93 7 57 0 87 -4 78 -9z m277
-26 c12 -10 -50 -8 -78 2 -34 12 -33 12 20 6 30 -3 56 -7 58 -8z m57 -15 c3
-6 -1 -7 -9 -4 -18 7 -21 14 -7 14 6 0 13 -4 16 -10z m350 -98 c-3 -3 -11 0
-18 7 -9 10 -8 11 6 5 10 -3 15 -9 12 -12z m-15 -12 c8 -5 11 -10 5 -10 -5 0
-17 5 -25 10 -8 5 -10 10 -5 10 6 0 17 -5 25 -10z m-305 -2510 c132 -136 274
-314 369 -463 l37 -57 -75 -93 c-70 -87 -183 -213 -155 -174 10 15 10 20 -2
29 -11 8 -10 9 4 4 11 -3 4 8 -17 27 -19 18 -37 44 -41 58 -3 13 -24 37 -46
53 -21 17 -49 45 -62 63 -12 18 -25 33 -28 33 -11 0 -99 88 -99 99 0 6 -4 11
-10 11 -5 0 -7 6 -4 14 3 7 -6 23 -20 34 -14 11 -26 25 -26 31 0 6 -8 11 -18
11 -10 0 -26 15 -36 35 -19 35 -41 45 -49 23 -2 -7 -11 4 -20 25 -9 20 -22 37
-30 37 -8 0 -21 9 -28 21 -8 11 -23 21 -34 23 -35 5 -25 47 34 146 32 52 75
125 95 163 l38 67 70 -67 c39 -38 108 -106 153 -153z"/>
<path d="M3900 6552 c0 -5 7 -9 15 -9 8 0 12 4 9 9 -3 4 -9 8 -15 8 -5 0 -9
-4 -9 -8z"/>
<path d="M3940 6556 c0 -2 7 -6 15 -10 8 -3 15 -1 15 4 0 6 -7 10 -15 10 -8 0
-15 -2 -15 -4z"/>
<path d="M4247 6549 c7 -7 15 -10 18 -7 3 3 -2 9 -12 12 -14 6 -15 5 -6 -5z"/>
<path d="M4135 3779 c-4 -6 -4 -13 -1 -16 3 -4 6 -1 6 6 0 7 5 9 12 5 7 -4 8
-3 4 4 -9 15 -13 15 -21 1z"/>
<path d="M5904 5755 c46 -173 55 -678 17 -924 -48 -310 -139 -598 -286 -896
-217 -443 -486 -798 -941 -1245 -805 -791 -1733 -1273 -2884 -1499 -268 -53
-649 -103 -888 -117 -62 -4 -109 -10 -105 -15 14 -12 202 -69 313 -94 221 -50
370 -66 656 -72 301 -6 470 4 742 43 867 124 1753 463 2489 953 308 205 520
379 758 622 253 259 423 489 559 759 90 176 138 304 181 475 43 168 58 295 57
480 -1 309 -71 594 -219 892 -30 62 -59 110 -64 107 -5 -3 -6 3 -2 12 4 12 3
15 -5 10 -7 -4 -10 -2 -7 6 5 18 -109 194 -124 190 -7 -1 -9 2 -6 8 4 6 -32
62 -79 123 -107 140 -169 209 -162 182z m-729 -2811 c61 -143 121 -323 159
-475 47 -187 48 -207 16 -226 -23 -14 -24 -14 -6 1 20 16 20 16 0 17 -17 0
-16 1 4 9 31 13 28 23 -5 16 -16 -3 -22 -3 -15 0 8 4 -1 20 -29 47 -23 23 -48
52 -57 65 -8 12 -20 22 -27 22 -16 0 -47 35 -38 43 3 4 -3 7 -15 7 -12 0 -22
5 -22 11 0 13 -39 52 -97 98 -24 18 -43 38 -43 44 0 6 -19 28 -42 48 -39 33
-41 38 -28 55 14 16 13 17 -2 11 -10 -4 -18 -2 -18 4 0 6 -9 9 -20 6 -15 -4
-10 5 19 36 88 95 175 193 194 219 12 16 24 28 28 28 4 0 23 -39 44 -86z"/>
<path d="M3898 1013 c7 -3 16 -2 19 1 4 3 -2 6 -13 5 -11 0 -14 -3 -6 -6z"/>
<path d="M3798 983 c7 -3 16 -2 19 1 4 3 -2 6 -13 5 -11 0 -14 -3 -6 -6z"/>
<path d="M3660 949 c-183 -54 -591 -132 -885 -169 -415 -51 -999 -77 -1440
-62 -154 6 -281 9 -283 7 -4 -4 394 -105 556 -141 301 -67 658 -125 987 -158
523 -54 1122 -45 1564 24 214 33 472 92 616 140 56 18 48 20 -17 5 -18 -5 -28
-3 -28 4 0 6 -8 11 -17 12 -11 0 -13 3 -5 6 6 2 12 12 12 20 0 13 -9 14 -55 8
-48 -6 -56 -4 -62 12 -11 29 -36 44 -46 27 -11 -19 -34 -18 -45 3 -8 13 -21
15 -81 10 -40 -3 -69 -2 -66 3 9 15 -11 20 -94 21 -58 1 -92 7 -118 20 -40 21
-73 25 -73 9 0 -5 -7 -7 -16 -3 -8 3 -13 11 -11 18 4 9 -16 11 -76 8 -59 -3
-78 -1 -67 6 12 8 8 11 -17 11 -20 0 -36 7 -42 18 -6 9 -11 14 -11 10 0 -3
-26 18 -57 48 -32 29 -64 54 -70 54 -7 0 -13 6 -13 14 0 21 38 30 58 14 15
-12 16 -11 3 5 -16 21 -19 21 -101 -4z m20 -26 c0 -15 -2 -16 -10 -3 -9 13
-11 13 -19 0 -6 -8 -13 -11 -18 -7 -8 9 15 27 35 27 6 0 12 -8 12 -17z m-75
-13 c8 -13 -5 -13 -25 0 -13 8 -13 10 2 10 9 0 20 -4 23 -10z m1119 -318 c3
-5 0 -9 -7 -10 -7 0 -23 -3 -37 -7 -21 -5 -20 -4 5 9 17 8 31 15 32 15 1 1 4
-3 7 -7z"/>
<path d="M4990 670 c-8 -5 -10 -10 -5 -10 6 0 17 5 25 10 8 5 11 10 5 10 -5 0
-17 -5 -25 -10z"/>
<path d="M4882 633 c-24 -8 -41 -17 -39 -19 4 -5 97 26 97 32 0 6 -11 4 -58
-13z"/>
</g>
</svg>
